<svg width="20" height="20" viewBox="0 0 20 20" fill="none" xmlns="http://www.w3.org/2000/svg">
  <path fill-rule="evenodd" clip-rule="evenodd" d="M9 1.875C5.06497 1.875 1.875 5.06497 1.875 9C1.875 12.935 5.06497 16.125 9 16.125C12.935 16.125 16.125 12.935 16.125 9C16.125 5.06497 12.935 1.875 9 1.875ZM0.125 9C0.125 4.09847 4.09847 0.125 9 0.125C13.9015 0.125 17.875 4.09847 17.875 9C17.875 13.9015 13.9015 17.875 9 17.875C4.09847 17.875 0.125 13.9015 0.125 9Z" fill="#181D25" />
  <path fill-rule="evenodd" clip-rule="evenodd" d="M14.0313 14.0313C14.373 13.6896 14.927 13.6896 15.2687 14.0313L19.6187 18.3813C19.9604 18.723 19.9604 19.277 19.6187 19.6187C19.277 19.9604 18.723 19.9604 18.3813 19.6187L14.0313 15.2687C13.6896 14.927 13.6896 14.373 14.0313 14.0313Z" fill="#181D25" />
</svg>